<svg width="879" height="134" viewBox="0 0 879 134" fill="none" xmlns="http://www.w3.org/2000/svg">
<path d="M207.202 114.411H209.035V99.9434H214.237V98.3358H202V99.9434H207.202V114.411Z" fill="white"/>
<path d="M242.828 114.747C246.243 114.747 248.672 112.732 248.672 109.085V98.3358H246.838V108.773C246.838 111.508 245.578 113.044 242.897 113.044C240.193 113.044 238.795 111.508 238.795 108.773V98.3358H236.962V109.085C236.962 112.876 239.506 114.747 242.828 114.747Z" fill="white"/>
<path d="M272.93 114.411H274.763V101.311L283.884 114.411H284.938V98.3358H283.105V109.948L275.015 98.3358H272.93V114.411Z" fill="white"/>
<path d="M305.601 114.411H307.434V98.3358H305.601V114.411Z" fill="white"/>
<path d="M328.096 114.411H329.929V101.311L339.05 114.411H340.104V98.3358H338.271V109.948L330.181 98.3358H328.096V114.411Z" fill="white"/>
<path d="M371.572 114.747C373.68 114.747 375.513 114.195 376.613 113.715V106.542H371.824V108.149H374.78V112.516C374.047 112.804 372.947 112.996 371.847 112.996C368.272 112.996 365.729 110.812 365.729 106.638C365.729 102.175 367.86 99.7996 371.847 99.7996C373.382 99.7996 374.918 100.255 375.926 100.831L376.27 99.0558C375.238 98.504 373.68 98.0001 371.709 98.0001C366.553 98.0001 363.781 101.335 363.781 106.638C363.781 111.868 366.943 114.747 371.572 114.747Z" fill="white"/>
<path d="M420.394 114.747C423.281 114.747 425.389 112.948 425.389 110.212C425.389 107.453 423.075 106.302 421.081 105.246C419.088 104.19 418.148 103.494 418.148 102.103C418.148 100.783 419.248 99.6555 421.127 99.6555C422.319 99.6555 423.556 100.063 424.541 100.807L424.839 99.0317C423.808 98.3119 422.548 98 421.058 98C418.377 98 416.292 99.4876 416.292 102.319C416.292 104.598 417.736 105.678 419.592 106.685C421.906 107.957 423.442 108.533 423.442 110.284C423.442 112.108 422.09 113.092 420.302 113.092C419.065 113.092 417.621 112.684 416.223 111.82L415.971 113.62C416.819 114.123 418.4 114.747 420.394 114.747Z" fill="white"/>
<path d="M450.312 114.411H452.146V107.981L457.508 98.3358H455.514L451.275 106.254L447.127 98.3358H445.019L450.312 107.981L450.312 114.411Z" fill="white"/>
<path d="M481.357 114.747C484.244 114.747 486.353 112.948 486.353 110.212C486.353 107.453 484.038 106.302 482.045 105.246C480.051 104.19 479.112 103.494 479.112 102.103C479.112 100.783 480.211 99.6555 482.09 99.6555C483.282 99.6555 484.519 100.063 485.505 100.807L485.803 99.0317C484.772 98.3119 483.511 98 482.022 98C479.341 98 477.255 99.4876 477.255 102.319C477.255 104.598 478.699 105.678 480.555 106.685C482.87 107.957 484.405 108.533 484.405 110.284C484.405 112.108 483.053 113.092 481.266 113.092C480.028 113.092 478.584 112.684 477.187 111.82L476.935 113.62C477.782 114.123 479.364 114.747 481.357 114.747Z" fill="white"/>
<path d="M512.101 114.411H513.934V99.9434H519.136V98.3358H506.899V99.9434H512.101V114.411Z" fill="white"/>
<path d="M540.909 114.411H549.617V112.804H542.742V106.757H548.219V105.15H542.742V99.9434H549.548V98.3358H540.909V114.411Z" fill="white"/>
<path d="M572.712 114.411H574.546V102.151L579.724 114.411H580.87L586.026 102.247V114.411H587.859V98.3358H585.82L580.343 111.436L574.912 98.3358H572.712V114.411Z" fill="white"/>
<path d="M633.138 114.747C636.026 114.747 638.134 112.948 638.134 110.212C638.134 107.453 635.82 106.302 633.826 105.246C631.832 104.19 630.893 103.494 630.893 102.103C630.893 100.783 631.993 99.6555 633.872 99.6555C635.063 99.6555 636.301 100.063 637.286 100.807L637.584 99.0317C636.553 98.3119 635.293 98 633.803 98C631.122 98 629.037 99.4876 629.037 102.319C629.037 104.598 630.48 105.678 632.336 106.685C634.651 107.957 636.186 108.533 636.186 110.284C636.186 112.108 634.834 113.092 633.047 113.092C631.809 113.092 630.366 112.684 628.968 111.82L628.716 113.62C629.564 114.123 631.145 114.747 633.138 114.747Z" fill="white"/>
<path d="M658.944 114.411H667.652V112.804H660.778V106.757H666.254V105.15H660.778V99.9434H667.583V98.3358H658.944L658.944 114.411Z" fill="white"/>
<path d="M700.057 114.411V112.9H699.552C699.117 112.9 698.796 112.732 698.43 112.084L696.436 108.653C696.092 108.029 695.634 107.429 695.084 107.117C697.559 106.541 698.544 104.718 698.544 102.535C698.544 99.8234 696.688 98.3358 693.663 98.3358H689.126V114.411H690.959V107.309H692.38C693.617 107.309 693.915 107.861 694.419 108.749L696.848 112.972C697.559 114.195 698.292 114.531 699.209 114.531C699.507 114.531 699.759 114.483 700.057 114.411ZM690.959 99.9434H693.205C695.359 99.9434 696.642 100.759 696.642 102.535C696.642 104.406 695.84 105.63 693.48 105.63H690.959V99.9434Z" fill="white"/>
<path d="M720.234 98.3358H718.287L724.245 114.411H725.276L731.211 98.3358H729.24L724.817 111.004L720.234 98.3358Z" fill="white"/>
<path d="M749.996 114.411H751.829V98.3358H749.996V114.411Z" fill="white"/>
<path d="M778.933 114.747C780.376 114.747 782.232 114.339 783.378 113.691L783.126 111.94C782.278 112.492 780.766 112.972 779.276 112.972C775.633 112.972 773.25 110.572 773.25 106.59C773.25 102.343 775.335 99.7515 779.07 99.7515C780.468 99.7515 781.889 100.207 782.851 100.759L783.172 98.9358C782.141 98.4079 780.491 98 778.955 98C774.418 98 771.302 101.191 771.302 106.59C771.302 111.604 774.235 114.747 778.933 114.747Z" fill="white"/>
<path d="M805.292 114.411H814V112.804H807.125V106.757H812.602V105.15H807.125V99.9434H813.931V98.3358H805.292V114.411Z" fill="white"/>
<path fill-rule="evenodd" clip-rule="evenodd" d="M100.937 66.026L100.007 66.9575L100.937 67.8865C101.256 68.2062 101.568 68.5309 101.873 68.8603C101.89 67.7498 101.905 66.4637 101.919 65.0022C101.6 65.3487 101.273 65.6901 100.937 66.026H100.937ZM96.8165 72.0029L95.8861 71.0714L93.6282 73.33L94.5586 74.2602C96.8628 76.5638 98.6094 79.2166 99.7985 82.0498C100.249 80.5133 100.653 78.9571 101.01 77.3814C99.865 75.4623 98.4673 73.6533 96.8165 72.0029ZM90.4424 78.3792L89.5119 77.449L87.2554 79.7037L88.1858 80.634C94.1901 86.6379 94.1901 96.4079 88.1846 102.412C82.179 108.416 72.4078 108.416 66.4023 102.412L65.3313 101.373C62.4871 98.4964 63.0722 95.649 65.4718 93.2487L96.8178 61.9108C98.9663 59.7629 100.686 57.346 101.977 54.7674C101.99 50.698 101.996 45.9871 101.996 40.6348V30.0553C100.703 27.4615 98.9765 25.0303 96.8165 22.8709C86.0517 12.1075 68.5338 12.1075 57.7677 22.8709L56.8372 23.8024L59.0951 26.0584L60.0269 25.1295C69.5481 15.6107 85.0387 15.6107 94.5599 25.1282C104.082 34.6482 104.082 50.1361 94.5599 59.6549L63.2152 90.9927C56.8558 97.3518 62.503 103.087 63.0709 103.664C63.6882 104.285 64.1444 104.669 64.1444 104.669C70.1579 110.681 79.3028 111.706 86.3838 107.743C89.4823 103.944 92.1883 99.7974 94.5019 95.3037C94.9718 94.3908 95.4224 93.4698 95.8536 92.5407C96.1302 87.4473 94.3265 82.2609 90.4424 78.3793V78.3792ZM53.6515 115.161L52.721 114.23L51.7918 115.161C47.66 119.291 42.7067 122.113 37.4525 123.625C37.4822 123.643 37.5119 123.661 37.5416 123.679C41.4946 126.057 45.5302 128.058 49.6482 129.683C51.0489 130.236 52.1258 130.497 52.879 130.468C53.6757 130.437 54.9556 130.067 56.7187 129.36C60.722 127.754 64.516 125.852 68.1008 123.656C62.806 122.152 57.8124 119.32 53.6515 115.161V115.161ZM47.6743 111.043L48.6048 110.113C49.1396 109.56 51.1088 107.413 52.5921 104.283C54.1824 107.595 56.3411 109.739 56.5963 109.995L57.7677 111.043C62.5224 115.796 68.5939 118.45 74.819 119.005C76.0953 118.012 77.3406 116.974 78.5549 115.893C71.8881 116.235 65.1068 113.866 60.0256 108.786L58.8838 107.705C54.2959 103.12 51.8318 94.139 58.1054 87.867L59.0938 86.875L90.4437 55.5358C97.6954 48.2885 97.6954 36.4945 90.4437 29.2446C83.1946 21.9973 71.3949 21.9973 64.1457 29.2446L63.2165 30.1761L65.4731 32.4334L66.4036 31.5019C72.4091 25.4979 82.1816 25.4979 88.1858 31.5019C94.1914 37.5058 94.1914 47.2771 88.1871 53.2811L56.8398 84.6177L56.6671 84.8084C54.8668 86.6096 53.578 88.3901 52.6695 90.1269C51.7648 88.3257 50.449 86.4807 48.5958 84.6267L47.548 83.5599L35.0563 71.0714L32.7984 73.3299L41.7448 82.2728L42.223 82.7817L47.1975 87.7549C49.8678 90.4271 50.9116 93.6571 50.8833 96.8447C50.8807 96.9619 50.8717 97.0817 50.8717 97.2015C50.7338 101.279 48.8677 105.239 46.3959 107.804L45.4151 108.786C40.4067 113.793 33.7465 116.167 27.1722 115.906C27.5076 116.202 27.8489 116.499 28.1959 116.796C29.0927 117.565 29.9765 118.294 30.8472 118.984C36.994 118.386 42.9769 115.739 47.6743 111.043V111.043ZM4.50669 67.8865L5.43588 66.9575L4.50669 66.026C4.1839 65.7034 3.86912 65.3757 3.56231 65.0433C3.5816 66.5116 3.60328 67.7635 3.62733 68.799C3.91355 68.4906 4.20666 68.1864 4.50669 67.8865ZM8.62293 61.9121L9.5534 62.8411L11.8113 60.5838L10.8821 59.6536C1.35958 50.1348 1.35958 34.6469 10.8821 25.1282C20.4033 15.6094 35.8927 15.6094 45.4151 25.1282L76.7599 56.4661L79.0177 54.2062L47.6743 22.8709C36.9082 12.1075 19.3891 12.1075 8.62293 22.8709C6.46641 25.0271 4.74184 27.4541 3.44924 30.0434C3.44508 33.021 3.444 36.3214 3.44602 39.9448C3.4492 45.6456 3.46063 50.5981 3.48029 54.8022C4.7694 57.3681 6.48361 59.7734 8.62292 61.9121L8.62293 61.9121ZM4.50541 18.7544C17.5423 5.72091 38.755 5.72091 51.7918 18.7544L52.721 19.6834L53.6515 18.7544C66.6884 5.72091 87.8997 5.72091 100.937 18.7544C101.3 19.1177 101.653 19.4874 101.996 19.863V9.28411L101.594 8.68726C101.326 8.28984 101.096 8.02448 100.904 7.89119C100.597 7.67735 100.059 7.47465 99.2899 7.2831C97.8407 6.922 93.6824 6.31051 86.8152 5.44862C79.9162 4.58275 74.5135 4.03337 70.6071 3.8005C66.6973 3.5674 60.8906 3.44875 53.1872 3.44457C45.7449 3.44051 40.2781 3.5278 36.7867 3.70644C33.3024 3.88473 28.5852 4.31811 22.635 5.00659C12.0051 6.23653 6.25566 7.07745 5.38676 7.52936C4.493 7.9942 3.92666 8.64311 3.6877 9.47608C3.58957 9.81818 3.5212 13.267 3.4826 19.8226C3.81413 19.4609 4.15507 19.1047 4.50542 18.7544H4.50541ZM41.2963 104.667L42.2268 103.736C42.8505 103.113 48.5274 97.2879 40.4831 89.2495L39.6197 88.3837L28.6783 77.4464L26.4204 79.7011L34.6464 87.925L36.3772 89.6695C36.5949 89.8873 36.8319 90.1178 37.0809 90.3601C39.8717 93.076 44.1822 97.2705 39.9689 101.48L39.0385 102.411C33.033 108.415 23.2604 108.415 17.2562 102.411C11.2507 96.4066 11.2494 86.6366 17.2562 80.6327H17.2562L20.2448 77.6461L32.9943 64.8987L48.6022 49.2974L46.3456 47.0375L14.9983 78.3741C11.2895 82.0826 9.47788 86.9804 9.56318 91.8505C12.322 97.9368 15.5858 103.288 19.3547 107.904C26.3935 111.675 35.3658 110.598 41.2963 104.667V104.667ZM10.8821 74.2602L42.2268 42.9236L39.969 40.665L8.62293 72.0003C7.04815 73.5751 5.70371 75.2942 4.58962 77.1155C4.91471 78.6423 5.30778 80.1884 5.7688 81.7538C6.95393 79.0319 8.65836 76.4834 10.8821 74.2602ZM17.2575 31.5032C23.2617 25.4992 33.0342 25.4966 39.0398 31.5032L70.3858 62.8385L72.6436 60.5812L41.2976 29.2433C34.0472 21.9948 22.2501 21.9961 14.9983 29.2433C7.74917 36.4932 7.74788 48.2873 14.9983 55.5371L15.9288 56.4661L18.1867 54.2101L17.2575 53.2798C11.2507 47.2759 11.252 37.5046 17.2575 31.5032ZM70.5185 35.6171L69.5893 36.5473L83.1378 50.0923L84.0683 49.1634C87.8018 45.4257 87.8018 39.3509 84.0683 35.6171C80.331 31.8833 74.2533 31.8833 70.5185 35.6171ZM22.3029 50.0923L35.8514 36.5486L34.921 35.6196C31.1849 31.8833 25.1072 31.8833 21.3724 35.6171C17.6377 39.3522 17.6377 45.4283 21.3737 49.1634L22.3029 50.0923ZM66.267 66.9575L52.7197 53.4125L39.1712 66.9575L52.7197 80.5L66.267 66.9575ZM70.5172 98.2967C74.2533 102.029 80.331 102.029 84.067 98.2967C87.8018 94.5603 87.8018 88.4855 84.067 84.7491L83.1365 83.8215L69.588 97.3665L70.5172 98.2967ZM35.8514 97.3639L22.3029 83.8228L21.3737 84.7504C17.639 88.4842 17.639 94.5616 21.3737 98.2954C25.1085 102.031 31.1849 102.028 34.921 98.2954L35.8514 97.3639ZM25.9536 119.411C22.5187 116.468 19.6175 113.585 17.2499 110.764C12.913 105.597 9.20551 99.5447 6.12753 92.6088C3.04553 85.6637 1.122 79.0195 0.356981 72.6765C0.130603 70.7996 0.0118279 59.8897 0.000689171 39.9467C-0.0105003 19.9108 0.114566 9.43739 0.375874 8.52649C0.886962 6.74491 2.02723 5.39398 3.79666 4.47367C5.04109 3.82648 11.1885 2.86357 22.2389 1.58496C28.2621 0.888039 33.0528 0.448557 36.6107 0.266511C40.1613 0.0848283 45.6874 -0.00396512 53.1891 0.000135779C60.9602 0.00436351 66.8345 0.125041 70.8122 0.362167C74.7935 0.599503 80.271 1.15579 87.2445 2.03101C94.2478 2.90997 98.5408 3.5466 100.123 3.9409C102.067 4.42526 103.51 5.36575 104.451 6.76234L105.148 7.79551C105.195 7.86621 105.237 7.94004 105.274 8.01701C105.311 8.09398 105.342 8.17323 105.367 8.25478C105.391 8.33632 105.41 8.41926 105.423 8.50359C105.435 8.58792 105.442 8.67272 105.442 8.75797V40.6348C105.442 61.9892 105.322 73.3284 105.081 74.6525C103.654 82.5101 101.149 89.9192 97.5652 96.8799C93.9774 103.849 89.4854 110.025 84.0892 115.408C76.6203 122.859 67.9247 128.575 58.0021 132.556C55.8703 133.412 54.2076 133.863 53.0142 133.91C51.7775 133.958 50.2339 133.617 48.3833 132.887C44.0879 131.192 39.8819 129.106 35.7653 126.63C32.6602 124.762 29.3896 122.356 25.9536 119.411H25.9536Z" fill="#C83333"/>
<path d="M176.738 57.792H149.899V49.5981H176.738V57.792ZM180.563 76.1189H149.899C148.722 76.1189 147.437 75.9208 146.042 75.5247C144.647 75.1285 143.35 74.4822 142.152 73.5857C140.975 72.6683 139.983 71.4903 139.177 70.0516C138.392 68.5922 138 66.8095 138 64.7037V35.3682C138 34.8052 138.109 34.2735 138.327 33.7732C138.545 33.2728 138.839 32.8349 139.21 32.4596C139.602 32.0843 140.059 31.7924 140.583 31.5839C141.106 31.3754 141.672 31.2712 142.282 31.2712H180.563V39.4026H146.499V64.7037C146.499 65.767 146.794 66.5802 147.382 67.1431C147.971 67.7061 148.831 67.9875 149.965 67.9875H180.563V76.1189Z" fill="white"/>
<path d="M228.105 76.1189H197.441C196.657 76.1189 195.807 76.0355 194.892 75.8687C193.998 75.681 193.105 75.3996 192.211 75.0243C191.339 74.649 190.5 74.1694 189.694 73.5857C188.888 72.981 188.168 72.2617 187.536 71.4277C186.926 70.5729 186.436 69.593 186.065 68.4879C185.695 67.362 185.509 66.1006 185.509 64.7037V42.6864C185.509 41.9358 185.597 41.1331 185.771 40.2783C185.967 39.4026 186.261 38.5477 186.654 37.7138C187.046 36.8589 187.558 36.0458 188.19 35.2743C188.822 34.5029 189.574 33.8253 190.446 33.2415C191.339 32.6368 192.364 32.1573 193.519 31.8029C194.674 31.4484 195.981 31.2712 197.441 31.2712H228.105V39.4026H197.441C196.33 39.4026 195.48 39.684 194.892 40.247C194.303 40.8099 194.009 41.6439 194.009 42.7489V64.7037C194.009 65.7462 194.303 66.5593 194.892 67.1431C195.502 67.7061 196.352 67.9875 197.441 67.9875H228.105V76.1189Z" fill="white"/>
<path d="M279.733 72.0219C279.733 72.6057 279.624 73.1478 279.407 73.6482C279.189 74.1486 278.884 74.5864 278.491 74.9617C278.099 75.3162 277.641 75.5976 277.118 75.8061C276.595 76.0146 276.039 76.1189 275.451 76.1189H256.295C254.486 76.1189 252.655 75.9312 250.803 75.5559C248.95 75.1807 247.152 74.6073 245.409 73.8358C243.687 73.0436 242.063 72.0428 240.538 70.8335C239.012 69.6242 237.672 68.196 236.517 66.5489C235.384 64.8809 234.49 62.9836 233.836 60.8569C233.182 58.7094 232.856 56.3221 232.856 53.6951V31.2712H241.355V53.6951C241.355 55.9885 241.682 57.9276 242.336 59.5121C243.011 61.0967 243.861 62.4207 244.886 63.484C245.91 64.5473 247.032 65.3813 248.253 65.986C249.473 66.5906 250.628 67.0389 251.718 67.3308C252.829 67.6227 253.799 67.8103 254.627 67.8937C255.477 67.9563 256.033 67.9875 256.295 67.9875H271.234V31.2712H279.733V72.0219Z" fill="white"/>
<path d="M633.51 50.3901C633.51 52.2458 633.27 53.9033 632.791 55.3628C632.311 56.8223 631.657 58.1149 630.829 59.2408C630.023 60.3458 629.086 61.2945 628.018 62.0868C626.95 62.8791 625.828 63.5254 624.651 64.0258C623.496 64.5262 622.319 64.891 621.12 65.1204C619.943 65.3497 618.832 65.4644 617.786 65.4644H598.564V57.3331H617.786C618.876 57.2497 619.856 57.0412 620.728 56.7076C621.622 56.3531 622.384 55.884 623.016 55.3002C623.648 54.7164 624.139 54.018 624.487 53.2048C624.836 52.3709 625.01 51.4326 625.01 50.3901V46.6998C624.901 45.6781 624.673 44.7399 624.324 43.8851C623.975 43.0302 623.496 42.3005 622.886 41.6959C622.297 41.0912 621.578 40.6221 620.728 40.2885C619.878 39.9341 618.897 39.7568 617.786 39.7568H598.629C597.496 39.7568 596.635 40.0383 596.047 40.6013C595.458 41.1642 595.164 41.9773 595.164 43.0407V76.473H586.665V43.0407C586.665 40.9557 587.057 39.1835 587.841 37.724C588.648 36.2645 589.639 35.0865 590.816 34.19C592.015 33.2935 593.312 32.6471 594.706 32.251C596.101 31.834 597.387 31.6255 598.564 31.6255H617.786C619.704 31.6255 621.425 31.8653 622.951 32.3448C624.476 32.8035 625.817 33.429 626.972 34.2213C628.149 34.9927 629.14 35.8892 629.947 36.9109C630.775 37.9325 631.45 39.0063 631.973 40.1321C632.518 41.2372 632.911 42.363 633.15 43.5098C633.39 44.6357 633.51 45.699 633.51 46.6998V50.3901Z" fill="white"/>
<path d="M687.655 58.3338C687.655 61.0652 687.165 63.5775 686.185 65.871C685.204 68.1644 683.842 70.1451 682.098 71.8131C680.355 73.4811 678.284 74.7842 675.887 75.7224C673.511 76.6398 670.918 77.0985 668.107 77.0985H656.6C653.788 77.0985 651.184 76.6398 648.787 75.7224C646.389 74.7842 644.319 73.4811 642.576 71.8131C640.832 70.1451 639.459 68.1644 638.457 65.871C637.476 63.5775 636.985 61.0652 636.985 58.3338V49.7647C636.985 47.0542 637.476 44.5523 638.457 42.2588C639.459 39.9445 640.832 37.9638 642.576 36.3167C644.319 34.6487 646.389 33.3456 648.787 32.4073C651.184 31.4691 653.788 31 656.6 31H668.107C670.918 31 673.511 31.4691 675.887 32.4073C678.284 33.3456 680.355 34.6487 682.098 36.3167C683.842 37.9638 685.204 39.9445 686.185 42.2588C687.165 44.5523 687.655 47.0542 687.655 49.7647V58.3338ZM679.156 49.7647C679.156 48.1592 678.884 46.7102 678.339 45.4175C677.816 44.104 677.064 42.9885 676.083 42.0712C675.124 41.1329 673.958 40.4136 672.585 39.9132C671.234 39.392 669.741 39.1314 668.107 39.1314H656.6C654.943 39.1314 653.429 39.392 652.056 39.9132C650.704 40.4136 649.539 41.1329 648.558 42.0712C647.577 42.9885 646.814 44.104 646.27 45.4175C645.747 46.7102 645.485 48.1592 645.485 49.7647V58.3338C645.485 59.9393 645.747 61.3987 646.27 62.7123C646.814 64.005 647.577 65.1204 648.558 66.0586C649.539 66.976 650.704 67.6953 652.056 68.2166C653.429 68.717 654.943 68.9671 656.6 68.9671H668.041C669.698 68.9671 671.201 68.717 672.553 68.2166C673.926 67.6953 675.102 66.976 676.083 66.0586C677.064 65.1204 677.816 64.005 678.339 62.7123C678.884 61.3987 679.156 59.9393 679.156 58.3338V49.7647Z" fill="white"/>
<path d="M740.559 46.6998C740.559 48.5554 740.319 50.2129 739.84 51.6724C739.36 53.1319 738.706 54.4245 737.878 55.5504C737.072 56.6555 736.135 57.6041 735.067 58.3964C733.999 59.1887 732.877 59.8454 731.7 60.3667C730.545 60.8671 729.368 61.2319 728.169 61.4613C726.992 61.6906 725.881 61.8053 724.835 61.8053L742.586 76.473H729.444L711.726 61.8053H705.613V53.674H724.835C725.903 53.5906 726.873 53.3821 727.744 53.0485C728.638 52.694 729.401 52.2249 730.033 51.6411C730.687 51.0573 731.188 50.3589 731.536 49.5457C731.885 48.7117 732.06 47.7631 732.06 46.6998V41.5708C732.06 41.1121 731.994 40.7681 731.863 40.5387C731.754 40.2885 731.602 40.1113 731.406 40.007C731.231 39.8819 731.035 39.809 730.817 39.7881C730.621 39.7673 730.436 39.7568 730.261 39.7568H702.213V76.473H693.714V35.7224C693.714 35.1595 693.823 34.6278 694.041 34.1274C694.259 33.627 694.553 33.1892 694.923 32.8139C695.316 32.4386 695.773 32.1467 696.296 31.9382C696.819 31.7297 697.386 31.6255 697.996 31.6255H730.261C732.158 31.6255 733.759 31.9591 735.067 32.6263C736.375 33.2726 737.432 34.0962 738.238 35.097C739.066 36.0769 739.654 37.1402 740.003 38.2869C740.374 39.4337 740.559 40.5074 740.559 41.5082V46.6998Z" fill="white"/>
<path d="M788.722 39.7568H769.991V76.473H761.491V39.7568H742.727V31.6255H788.722V39.7568Z" fill="white"/>
<path d="M837.016 76.473H828.517V65.4644H798.638V76.473H790.138V54.0492C790.138 50.7758 790.727 47.7631 791.904 45.0109C793.081 42.2588 794.715 39.8924 796.807 37.9117C798.899 35.9309 801.373 34.3881 804.228 33.283C807.083 32.178 810.199 31.6255 813.577 31.6255H832.734C833.322 31.6255 833.878 31.7297 834.401 31.9382C834.924 32.1467 835.382 32.4386 835.774 32.8139C836.166 33.1892 836.471 33.627 836.689 34.1274C836.907 34.6278 837.016 35.1595 837.016 35.7224V76.473ZM798.638 57.3331H828.517V39.7568H813.577C813.316 39.7568 812.76 39.7985 811.91 39.8819C811.082 39.9445 810.112 40.1217 809.001 40.4136C807.911 40.7055 806.756 41.1538 805.535 41.7584C804.315 42.363 803.193 43.197 802.168 44.2604C801.144 45.3237 800.294 46.6581 799.619 48.2635C798.965 49.8481 798.638 51.7766 798.638 54.0492V57.3331Z" fill="white"/>
<path d="M878.5 76.1603L848.861 76.473C848.25 76.473 847.684 76.3688 847.161 76.1603C846.638 75.9518 846.18 75.6703 845.788 75.3159C845.417 74.9406 845.123 74.5027 844.905 74.0023C844.687 73.5019 844.578 72.9599 844.578 72.3761V31.6255H853.078V68.3417H878.5V72.3761V76.1603Z" fill="white"/>
<path d="M341.458 39.676H322.726V76.3922H314.227V39.676H295.462V31.5447H341.458V39.676Z" fill="white"/>
<path d="M395.349 72.2953C395.349 72.8791 395.24 73.4212 395.022 73.9216C394.804 74.4219 394.499 74.8598 394.107 75.2351C393.715 75.5895 393.257 75.871 392.734 76.0795C392.211 76.288 391.655 76.3922 391.067 76.3922H371.91C370.101 76.3922 368.271 76.2046 366.418 75.8293C364.566 75.454 362.768 74.8806 361.024 74.1092C359.303 73.3169 357.679 72.3161 356.153 71.1069C354.628 69.8976 353.288 68.4694 352.133 66.8223C350.999 65.1543 350.106 63.257 349.452 61.1303C348.798 58.9828 348.471 56.5955 348.471 53.9685V31.5447H356.971V53.9685C356.971 56.2619 357.298 58.2009 357.951 59.7855C358.627 61.3701 359.477 62.694 360.501 63.7574C361.526 64.8207 362.648 65.6547 363.868 66.2593C365.089 66.864 366.244 67.3122 367.334 67.6041C368.445 67.896 369.415 68.0837 370.243 68.1671C371.093 68.2296 371.649 68.2609 371.91 68.2609H386.85V31.5447H395.349V72.2953Z" fill="white"/>
<path d="M441 36.301C441 52.1949 441 61.106 441 77H433C433 61.106 433 52.1949 433 36.301V31H441V36.301Z" fill="white"/>
<path d="M413 36.301C413 52.1949 413 61.106 413 77H403C403 61.106 403 52.1949 403 36.301V31H413V36.301Z" fill="white"/>
<path d="M425.735 44.8659C436.796 56.2558 441 61.106 441 77H430.651C430.651 61.106 420.82 50.8084 420.82 50.8084L403 31H412.852L425.735 44.8659Z" fill="white"/>
<path d="M510 36.301C510 52.1949 510 61.106 510 77H502C502 61.106 502 52.1949 502 36.301V31H510V36.301Z" fill="white"/>
<path d="M482 36.301C482 52.1949 482 61.106 482 77H472C472 61.106 472 52.1949 472 36.301V31H482V36.301Z" fill="white"/>
<path d="M494.735 44.8659C505.796 56.2558 510 61.106 510 77H499.651C499.651 61.106 489.82 50.8084 489.82 50.8084L472 31H481.852L494.735 44.8659Z" fill="white"/>
<path d="M463.23 76.3836H453.137V31H463.23V76.3836Z" fill="white"/>
<path d="M560.355 76.8412H552.097V49.9346H560.355V76.8412Z" fill="white"/>
<path d="M556.743 58.3703H529.17V49.9139C539.889 49.9139 546.023 49.9139 556.743 49.9139V53.4222V58.3703ZM559.323 76.671C559.323 76.671 541.417 77.2842 529.17 77.2842C527.966 77.2842 526.651 77.0798 525.225 76.671C523.798 76.2621 522.472 75.5951 521.246 74.6698C520.042 73.7231 519.028 72.5073 518.204 71.0226C517.401 69.5164 517 67.6766 517 65.5034V35.2282C517 34.6472 517.111 34.0985 517.334 33.5821C517.557 33.0657 517.858 32.6138 518.237 32.2265C518.638 31.8392 519.106 31.5379 519.641 31.3228C520.176 31.1076 520.756 31 521.38 31H560.53V39.3918H525.693V65.5034C525.693 66.6007 525.994 67.4399 526.595 68.0209C527.197 68.6019 528.078 68.8924 529.237 68.8924C541.458 68.8924 552.613 68.8924 552.613 68.8924L559.323 76.671Z" fill="white"/>
</svg>
