<svg width="250" height="318" viewBox="0 0 250 318" fill="none" xmlns="http://www.w3.org/2000/svg">
<path fill-rule="evenodd" clip-rule="evenodd" d="M239.319 156.587L237.115 158.796L239.319 160.999C240.077 161.757 240.816 162.527 241.538 163.309C241.578 160.675 241.615 157.625 241.647 154.159C240.891 154.981 240.115 155.79 239.319 156.587ZM229.55 170.762L227.344 168.552L221.99 173.909L224.196 176.115C229.66 181.578 233.801 187.87 236.62 194.589C237.688 190.945 238.645 187.254 239.491 183.517C236.778 178.966 233.464 174.676 229.55 170.762ZM214.437 185.884L212.231 183.678L206.881 189.025L209.087 191.231C223.323 205.47 223.323 228.64 209.084 242.879C194.845 257.118 171.677 257.118 157.438 242.879L154.899 240.416C148.156 233.593 149.543 226.841 155.232 221.148L229.553 146.827C234.647 141.733 238.724 136.001 241.785 129.886C241.816 120.235 241.831 109.063 241.831 96.3691V71.279C238.765 65.1274 234.671 59.3617 229.55 54.2404C204.027 28.7141 162.492 28.7141 136.966 54.2404L134.76 56.4496L140.113 61.7999L142.322 59.5968C164.897 37.0222 201.625 37.0223 224.2 59.5938C246.777 82.1714 246.777 118.902 224.2 141.477L149.882 215.798C134.804 230.879 148.193 244.481 149.54 245.849C151.003 247.322 152.085 248.233 152.085 248.233C166.343 262.491 188.025 264.921 204.814 255.524C212.161 246.513 218.577 236.679 224.062 226.021C225.176 223.857 226.244 221.672 227.267 219.469C227.923 207.389 223.646 195.089 214.437 185.884ZM127.206 273.114L125 270.908L122.797 273.114C113.001 282.911 101.257 289.602 88.7991 293.188C88.8696 293.231 88.94 293.273 89.0103 293.316C98.3829 298.955 107.951 303.702 117.715 307.556C121.036 308.866 123.589 309.487 125.375 309.416C127.264 309.343 130.298 308.467 134.479 306.789C143.97 302.979 152.966 298.471 161.465 293.262C148.912 289.695 137.072 282.979 127.206 273.114ZM113.035 263.349L115.241 261.142C116.509 259.832 121.178 254.741 124.695 247.316C128.465 255.172 133.583 260.256 134.188 260.864L136.966 263.349C148.239 274.622 162.635 280.916 177.394 282.232C180.42 279.876 183.373 277.416 186.252 274.852C170.445 275.663 154.367 270.044 142.319 257.995L139.612 255.432C128.734 244.56 122.892 223.259 137.767 208.385L140.11 206.032L214.44 131.708C231.634 114.521 231.634 86.55 214.44 69.3563C197.252 52.1687 169.276 52.1687 152.088 69.3563L149.885 71.5655L155.235 76.9188L157.441 74.7096C171.68 60.4707 194.851 60.4707 209.087 74.7096C223.326 88.9486 223.326 112.122 209.09 126.361L134.766 200.679L134.357 201.131C130.088 205.403 127.032 209.625 124.878 213.744C122.733 209.473 119.613 205.097 115.219 200.7L112.735 198.17L83.1176 168.552L77.7643 173.909L98.9761 195.118L100.11 196.324L111.904 208.119C118.235 214.456 120.71 222.117 120.643 229.676C120.637 229.954 120.616 230.238 120.616 230.522C120.289 240.193 115.864 249.583 110.004 255.667L107.678 257.995C95.8034 269.872 80.0121 275.501 64.4247 274.882C65.22 275.584 66.0291 276.287 66.8519 276.993C68.9781 278.815 71.0736 280.545 73.1381 282.183C87.7119 280.764 101.897 274.486 113.035 263.349ZM10.6853 160.999L12.8883 158.796L10.6853 156.587C9.91994 155.822 9.17361 155.045 8.44617 154.256C8.49191 157.738 8.54329 160.707 8.60032 163.163C9.27893 162.432 9.9739 161.71 10.6853 160.999ZM20.4448 146.83L22.6509 149.033L28.0043 143.68L25.8012 141.474C3.22354 118.899 3.22354 82.1684 25.8012 59.5938C48.3758 37.0192 85.1007 37.0192 107.678 59.5938L181.996 133.915L187.349 128.555L113.035 54.2404C87.5085 28.7141 45.971 28.7141 20.4448 54.2404C15.3317 59.3541 11.2428 65.11 8.17806 71.2507C8.1682 78.3124 8.16565 86.1397 8.17044 94.7327C8.17798 108.253 8.20508 119.998 8.25168 129.969C11.3082 136.054 15.3725 141.758 20.4448 146.83ZM10.6822 44.4779C41.5924 13.5677 91.8872 13.5677 122.797 44.4779L125 46.6809L127.206 44.4779C158.117 13.5677 208.408 13.5677 239.319 44.4779C240.18 45.3395 241.018 46.2161 241.831 47.107V22.0181L240.877 20.6026C240.242 19.6601 239.697 19.0308 239.242 18.7147C238.513 18.2075 237.237 17.7268 235.414 17.2725C231.978 16.4162 222.119 14.9659 205.837 12.9219C189.479 10.8684 176.67 9.56551 167.408 9.01325C158.138 8.46043 144.37 8.17902 126.106 8.16912C108.46 8.15949 95.4984 8.3665 87.2204 8.79016C78.9592 9.21299 67.7748 10.2408 53.6671 11.8736C28.4638 14.7905 14.832 16.7848 12.7719 17.8566C10.6528 18.959 9.31002 20.4979 8.74346 22.4734C8.51079 23.2847 8.34868 31.464 8.25716 47.0112C9.04321 46.1532 9.85154 45.3085 10.6822 44.4779ZM97.9127 248.227L100.119 246.02C101.598 244.542 115.058 230.727 95.9846 211.663L93.9374 209.61L67.9956 183.671L62.6422 189.019L82.146 208.522L86.2496 212.66C86.7657 213.176 87.3276 213.723 87.918 214.297C94.5348 220.738 104.755 230.686 94.7655 240.67L92.5594 242.876C78.3204 257.115 55.15 257.115 40.914 242.876C26.6751 228.637 26.672 205.467 40.914 191.228L47.9999 184.145L78.2287 153.913L115.235 116.913L109.884 111.554L35.5606 185.871C26.7672 194.666 22.4718 206.282 22.6741 217.832C29.2152 232.266 36.9537 244.957 45.8895 255.905C62.5783 264.847 83.8516 262.293 97.9127 248.227ZM25.8012 176.115L100.119 101.797L94.7655 96.4409L20.4448 170.755C16.711 174.49 13.5234 178.567 10.8819 182.886C11.6527 186.507 12.5846 190.174 13.6777 193.887C16.4876 187.431 20.5288 181.387 25.8012 176.115ZM40.9171 74.7128C55.153 60.4738 78.3235 60.4677 92.5624 74.7128L166.883 149.027L172.236 143.674L97.9158 69.3533C80.7251 52.1626 52.7544 52.1657 35.5607 69.3533C18.3731 86.547 18.37 114.518 35.5607 131.711L37.7668 133.915L43.1202 128.564L40.9171 126.358C26.6751 112.119 26.6781 88.9456 40.9171 74.7128ZM167.198 84.4692L164.995 86.6753L197.118 118.799L199.324 116.595C208.176 107.731 208.176 93.3242 199.324 84.4692C190.463 75.6141 176.053 75.6141 167.198 84.4692ZM52.8797 118.799L85.0029 86.6784L82.7968 84.4753C73.9387 75.6141 59.5286 75.6141 50.6736 84.4692C41.8185 93.3273 41.8185 107.737 50.6766 116.595L52.8797 118.799ZM157.117 158.796L124.997 126.673L92.8741 158.796L124.997 190.913L157.117 158.796ZM167.195 233.12C176.053 241.972 190.463 241.972 199.321 233.12C208.176 224.259 208.176 209.852 199.321 200.99L197.115 198.79L164.992 230.914L167.195 233.12ZM85.0029 230.908L52.8797 198.793L50.6766 200.993C41.8216 209.849 41.8216 224.262 50.6766 233.117C59.5317 241.975 73.9387 241.969 82.7968 233.117L85.0029 230.908ZM61.5355 283.195C53.3914 276.214 46.5126 269.378 40.8992 262.688C30.6164 250.432 21.8261 236.08 14.5282 219.63C7.22088 203.159 2.66024 187.402 0.846393 172.359C0.309656 167.908 0.0280437 142.034 0.00163401 94.7374C-0.024896 47.2203 0.271634 22.3816 0.891189 20.2214C2.10297 15.9962 4.80651 12.7923 9.0018 10.6097C11.9523 9.07484 26.5277 6.79121 52.7279 3.75887C67.0089 2.10607 78.3674 1.0638 86.8032 0.632056C95.2216 0.201178 108.324 -0.00940366 126.11 0.000322012C144.535 0.0103485 158.463 0.296547 167.894 0.858912C177.334 1.42178 190.321 2.74105 206.855 4.81673C223.46 6.90127 233.638 8.4111 237.39 9.34621C241.999 10.4949 245.42 12.7254 247.652 16.0375L249.302 18.4878C249.416 18.6554 249.516 18.8306 249.603 19.0131C249.689 19.1956 249.762 19.3836 249.822 19.577C249.881 19.7704 249.925 19.9671 249.955 20.167C249.985 20.3671 250 20.5681 250 20.7703V96.3691C250 147.013 249.715 173.905 249.145 177.045C245.762 195.68 239.822 213.252 231.325 229.76C222.818 246.287 212.168 260.934 199.374 273.701C181.665 291.371 161.048 304.928 137.522 314.37C132.467 316.399 128.525 317.468 125.695 317.579C122.763 317.694 119.103 316.886 114.716 315.154C104.531 311.134 94.5591 306.188 84.7988 300.315C77.4365 295.885 69.682 290.178 61.5355 283.195Z" fill="#C83333"/>
</svg>
